<?xml version="1.0" encoding="UTF-8"?>
<svg version="1.1" viewBox="0 0 1080 1080" width="1080" height="1080" xmlns="http://www.w3.org/2000/svg">
<path transform="translate(509,49)" d="m0 0h62l38 4 34 6 25 6 29 9 20 7 26 11 29 14 24 14 27 18 14 10 16 13 11 9 13 12 28 28 9 11 12 14 12 16 18 27 8 13 10 18 11 21 12 28 10 28 7 23 6 24 6 31 4 33 1 13v60l-3 31-5 32-7 31-8 27-8 23-12 29-11 23-13 23-11 18-11 16-8 11-14 18-13 15-9 10-28 28-11 9-10 9-16 12-14 10-17 11-20 12-18 10-23 11-27 11-36 12-22 6-34 7-29 4-22 2h-62l-39-4-33-6-32-8-36-12-25-10-20-9-23-12-20-12-17-11-17-12-18-14-15-13-12-11-27-27-9-11-12-14-9-12-12-17-15-23-13-24-10-19-12-28-10-28-7-23-7-28-6-34-4-38v-61l3-31 5-32 7-31 8-27 9-26 11-26 11-23 13-23 11-18 13-19 9-12 11-14 13-15 9-10 29-29 11-9 8-7 13-10 18-13 23-15 21-12 23-12 25-11 24-9 28-9 23-6 31-6 28-4z" fill="#FEFEFE"/>
<path transform="translate(495,89)" d="m0 0h52l35 3 30 5 21 5 6 1 25 11 8 5 28 12 18 10 14 8 14 6 7 2h13l8-4 3-1 2-5 3-9 3-18h7l3 3v173l-2 5-3 2h-10l-6-3-3-3-12-32-11-24-9-17-12-18-12-16-12-14-17-17-14-11-12-9-20-12-16-8-25-10-25-7-22-4-20-2h-32l-21 3-20 6-17 8-13 9-14 12-11 13-9 14-9 17-8 22-6 26-2 15-1 14v16l2 16 6 18 9 17 10 13 12 14 13 12 14 11 12 9 20 13 15 9v-156l-3-13-6-10-9-8-8-4-14-3-13-1-1-5 1-1h215l1 5-1 1-18 2-12 4-9 6-8 9-5 12-1 4v208l32 12 27 12 28 14 21 12 21 14 19 14 13 11 12 11 20 20 11 14 11 15 10 17 8 16 7 17 7 25 4 27 1 15v11l-2 27-4 22-6 21-8 20-8 16-10 16-13 16-7 8-13 13-11 9-12 9-21 13-16 8-20 9-27 9-28 7-31 5-23 2h-53l-29-3-23-4-36-9-31-11-24-11-21-11-19-12-22-15-15-8-13-4h-13l-10 4-5 5-5 8-3 10-1 7-1 20-3 5h-6l-3-4v-218l3-5 4-2h7l6 3 5 10 10 25 16 33 12 22 12 19 11 16 13 17 12 14 14 15 13 12 11 9 15 11 21 13 25 12 30 10 21 5 21 3 15 1h30l19-2 22-5 15-5 15-7 16-9 13-10 12-11 10-11 12-17 11-21 8-21 6-24 3-19 1-12v-25l-4-16-8-16-8-11-9-10-14-14-14-11-14-10-19-12-23-13-29-15-5-2 1 207 3 12 6 10 9 8 12 5 9 2 15 2v5h-217v-5l19-3 12-4 9-6 8-9 4-9 2-9v-251l-29-14-19-10-20-12-27-18-17-13-13-11-10-9-11-10-7-8-9-10-13-17-11-17-10-18-10-25-6-21-3-16-2-18v-33l3-26 6-26 7-20 8-18 10-17 10-14 13-15 13-13 14-11 15-10 16-9 19-9 25-9 24-6 24-4z" fill="#010000"/>
<path transform="translate(590,453)" d="m0 0 31 11 29 13 28 14 21 12 21 14 19 14 13 11 12 11 20 20 11 14 11 15 10 17 8 16 7 17 7 25 4 27 1 15v11l-2 27-4 22-6 21-8 20-8 16-10 16-13 16-7 8-13 13-11 9-12 9-21 13-16 8-20 9-27 9-28 7-31 5-23 2h-53l-29-3-23-4-36-9-31-11-24-11-21-11-19-12-22-15-15-8-13-4h-13l-10 4-5 5-5 8-3 10-1 7-1 20-3 5h-6l-3-4v-218l3-5 4-2h7l6 3 5 10 10 25 16 33 12 22 12 19 11 16 13 17 12 14 14 15 13 12 11 9 15 11 21 13 25 12 30 10 21 5 21 3 15 1h30l19-2 22-5 15-5 15-7 16-9 13-10 12-11 10-11 12-17 11-21 8-21 6-24 3-19 1-12v-25l-4-16-8-16-8-11-9-10-14-14-14-11-14-10-19-12-23-13-29-15-5-2v200h-1v-201z" fill="#6F4E37"/>
<path transform="translate(495,89)" d="m0 0h52l35 3 30 5 21 5 6 1 25 11 8 5 28 12 18 10 14 8 14 6 7 2h13l8-4 3-1 2-5 3-9 3-18h7l3 3v173l-2 5-3 2h-10l-6-3-3-3-12-32-11-24-9-17-12-18-12-16-12-14-17-17-14-11-12-9-20-12-16-8-25-10-25-7-22-4-20-2h-32l-21 3-20 6-17 8-13 9-14 12-11 13-9 14-9 17-8 22-6 26-2 15-1 14v16l2 16 6 18 9 17 10 13 12 14 13 12 14 11 12 9 20 13 15 9 1 1v174l-16-7-24-12-24-14-19-12-17-12-13-10-13-11-10-9-11-10-7-8-9-10-13-17-11-17-10-18-10-25-6-21-3-16-2-18v-33l3-26 6-26 7-20 8-18 10-17 10-14 13-15 13-13 14-11 15-10 16-9 19-9 25-9 24-6 24-4z" fill="#6F4E37"/>
</svg>
